<svg xmlns="http://www.w3.org/2000/svg" width="32" height="32" data-name="Layer 1" viewBox="0 0 98 98"><g data-name="&lt;Group&gt;"><path fill="#00efd1" d="M72.7,22.7h6.6a6,6,0,0,1,6,6V75.2a6,6,0,0,1-6,6H18.7a6,6,0,0,1-6-6V28.7a6,6,0,0,1,6-6h54Z" data-name="&lt;Group&gt;"/><g data-name="&lt;Group&gt;"><path fill="#224099" d="M79.4,21H75V16.9a2,2,0,0,0-4,0V21H51V16.9a2,2,0,1,0-4,0V21H27V16.9a2,2,0,0,0-4,0V21H18.6A7.5,7.5,0,0,0,11,28.8V75.1A7.5,7.5,0,0,0,18.6,83H79.4A7.5,7.5,0,0,0,87,75.1V28.8A7.5,7.5,0,0,0,79.4,21ZM83,75.1c0,2.3-1.4,3.9-3.6,3.9H18.6c-2.2,0-3.6-1.6-3.6-3.9V28.8A3.5,3.5,0,0,1,18.6,25H23v2.5a2,2,0,0,0,4,0V25H47v2.5a2,2,0,0,0,4,0V25H71v2.5a2,2,0,0,0,4,0V25h4.4A3.5,3.5,0,0,1,83,28.8Z" data-name="&lt;Compound Path&gt;"/><g data-name="&lt;Group&gt;"><path fill="#224099" d="M43.8,41.6H40.2a1.9,1.9,0,0,1-2-2,2,2,0,0,1,2-2h3.6a2,2,0,0,1,2,2A1.9,1.9,0,0,1,43.8,41.6Z" data-name="&lt;Path&gt;"/></g><g data-name="&lt;Group&gt;"><path fill="#224099" d="M57.6,41.6H54.1a1.9,1.9,0,0,1-2-2,2,2,0,0,1,2-2h3.5a1.9,1.9,0,0,1,2,2A1.9,1.9,0,0,1,57.6,41.6Z" data-name="&lt;Path&gt;"/></g><g data-name="&lt;Group&gt;"><path fill="#224099" d="M71.6,41.6H68.1a1.9,1.9,0,0,1-2-2,2,2,0,0,1,2-2h3.5a1.9,1.9,0,0,1,2,2A1.9,1.9,0,0,1,71.6,41.6Z" data-name="&lt;Path&gt;"/></g><g data-name="&lt;Group&gt;"><path fill="#224099" d="M43.8,55.4H40.2a2,2,0,0,1-2-2,1.9,1.9,0,0,1,2-2h3.6a1.9,1.9,0,0,1,2,2A2,2,0,0,1,43.8,55.4Z" data-name="&lt;Path&gt;"/></g><g data-name="&lt;Group&gt;"><path fill="#224099" d="M29.8,55.4H26.2a2,2,0,0,1-2-2,1.9,1.9,0,0,1,2-2h3.6a1.9,1.9,0,0,1,2,2A2,2,0,0,1,29.8,55.4Z" data-name="&lt;Path&gt;"/></g><g data-name="&lt;Group&gt;"><path fill="#224099" d="M57.6,55.4H54.1a2,2,0,0,1-2-2,1.9,1.9,0,0,1,2-2h3.5a1.9,1.9,0,0,1,2,2A1.9,1.9,0,0,1,57.6,55.4Z" data-name="&lt;Path&gt;"/></g><g data-name="&lt;Group&gt;"><path fill="#224099" d="M71.6,55.4H68.1a2,2,0,0,1-2-2,1.9,1.9,0,0,1,2-2h3.5a1.9,1.9,0,0,1,2,2A1.9,1.9,0,0,1,71.6,55.4Z" data-name="&lt;Path&gt;"/></g><g data-name="&lt;Group&gt;"><path fill="#224099" d="M43.8,69H40.2a1.9,1.9,0,0,1-2-2,2,2,0,0,1,2-2h3.6a2,2,0,0,1,2,2A1.9,1.9,0,0,1,43.8,69Z" data-name="&lt;Path&gt;"/></g><g data-name="&lt;Group&gt;"><path fill="#224099" d="M29.8,69H26.2a1.9,1.9,0,0,1-2-2,2,2,0,0,1,2-2h3.6a2,2,0,0,1,2,2A1.9,1.9,0,0,1,29.8,69Z" data-name="&lt;Path&gt;"/></g><g data-name="&lt;Group&gt;"><path fill="#224099" d="M57.6,69H54.1a1.9,1.9,0,0,1-2-2,2,2,0,0,1,2-2h3.5a1.9,1.9,0,0,1,2,2A1.9,1.9,0,0,1,57.6,69Z" data-name="&lt;Path&gt;"/></g></g></g></svg>