<svg xmlns="http://www.w3.org/2000/svg" width="32" height="32" data-name="Layer 1" viewBox="0 0 64 64"><polygon fill="#41ead4" points="39 47 45 49 61 45 61 3 36 7 21 3 3 7 3 49 27 43 33 45 39 47"/><rect width="6" height="6" x="33" y="43" fill="#4c5c68"/><rect width="4" height="12" x="34" y="49" fill="#2d3142"/><path fill="#4c5c68" d="M27.04 17.04C30.42 17.25 33 18.49 33 20c0 1.66-3.13 3-7 3s-7-1.34-7-3c0-1.51 2.58-2.75 5.96-2.96zM51.04 21.04C54.42 21.25 57 22.49 57 24c0 1.66-3.13 3-7 3s-7-1.34-7-3c0-1.51 2.58-2.75 5.96-2.96zM15.04 34.04C18.42 34.25 21 35.49 21 37c0 1.66-3.13 3-7 3s-7-1.34-7-3c0-1.51 2.58-2.75 5.96-2.96z"/><circle cx="36" cy="37" r="8" fill="#4f5d75"/><circle cx="36" cy="37" r="5" fill="#ff9f1c"/><path fill="#f71735" d="M17 29c0 1.657-3 7-3 7s-3-5.343-3-7a3 3 0 0 1 6 0zM29 12c0 1.657-3 7-3 7s-3-5.343-3-7a3 3 0 0 1 6 0zM53 16c0 1.657-3 7-3 7s-3-5.343-3-7a3 3 0 0 1 6 0z"/></svg>