<svg xmlns="http://www.w3.org/2000/svg" viewBox="0 0 64 64"><g data-name="new items-sign-tag-new"><polygon fill="#f5aa42" points="36.18 57.29 36.18 60.87 36.03 60.87 27.82 60.87 27.82 45.74 33.47 50.53 36.18 47.55 36.18 56.32 36.18 57.29"/><polygon fill="#f7d44f" points="50.14 26.67 54.03 33.46 47.37 37.56 46.52 45.34 38.72 44.74 36.18 47.55 33.47 50.53 27.82 45.74 27.51 45.47 19.86 47.06 18.01 39.46 10.88 36.25 13.86 29.02 9.97 22.23 16.63 18.13 17.48 10.36 25.28 10.95 30.53 5.17 36.49 10.23 44.14 8.63 45.99 16.23 53.12 19.44 50.14 26.67"/><path fill="#700900" d="M51.255,26.6l3.153-7.677-7.557-3.406L44.886,7.456,36.765,9.149l-6.327-5.37L24.866,9.916,16.6,9.291l-.907,8.242L8.624,21.886l4.121,7.2L9.592,36.768l7.557,3.405,1.965,8.059,7.708-1.6V60.872a1,1,0,0,0,1,1h8.356a1,1,0,0,0,1-1V47.933l1.956-2.158,8.271.635.907-8.252,7.064-4.352ZM34.212,51.2l.966-1.063v9.731H28.822V47.9l4,3.4h0l.735.624.648-.714ZM46.431,36.969l-.8,7.3-7.319-.561-4.929,5.438-5.6-4.751L20.6,45.883l-1.738-7.132-6.684-3.013,2.79-6.793-3.646-6.372,6.248-3.85.8-7.291,7.319.552,4.929-5.427,5.6,4.751L43.4,9.81l1.738,7.129,6.684,3.014-2.79,6.792,3.646,6.373Z"/><path fill="#700900" d="M24.123 23.309h-.009a1 1 0 0 0-.991 1.007l.039 4.9-3.035-5.322a1 1 0 0 0-1.869.5l.07 8.613a1 1 0 0 0 1 .992h.008a1 1 0 0 0 .992-1.008l-.038-4.779 3.035 5.322a1 1 0 0 0 .868.5 1.017 1.017 0 0 0 .261-.034 1 1 0 0 0 .739-.974l-.07-8.732A1 1 0 0 0 24.123 23.309zM32.789 31.858H32.78l-2.947.025-.018-2.2 2.669-.022a1 1 0 1 0-.017-2l-2.668.022-.02-2.381 2.669-.022a1 1 0 0 0 .992-1.008 1.03 1.03 0 0 0-1.008-.992l-3.668.029a1 1 0 0 0-.993 1.008l.07 8.578a1 1 0 0 0 1 .993h.008l3.948-.033a1 1 0 0 0-.008-2zM45.448 23.548a1 1 0 0 0-1.244.672l-1.5 5.008-1.224-4.981a1 1 0 0 0-.971-.762H40.5a1 1 0 0 0-.965.78l-1.015 4.479-1.3-4.858a1 1 0 0 0-1.933.515l2.342 8.779a1.012 1.012 0 0 0 .985.742 1 1 0 0 0 .956-.779l.975-4.306 1.091 4.435a1 1 0 0 0 .946.762h.025a1 1 0 0 0 .958-.714l2.549-8.528A1 1 0 0 0 45.448 23.548z"/></g></svg>